<?xml version="1.0" encoding="UTF-8" standalone="no"?>
<!DOCTYPE svg PUBLIC "-//W3C//DTD SVG 1.1//EN"
 "http://www.w3.org/Graphics/SVG/1.1/DTD/svg11.dtd">
<!-- Generated by graphviz version 14.1.5 (20260411.2331)
 -->
<!-- Title: G Pages: 1 -->
<svg width="1737pt" height="487pt"
 viewBox="0.00 0.00 1737.00 487.00" xmlns="http://www.w3.org/2000/svg" xmlns:xlink="http://www.w3.org/1999/xlink">
<g id="graph0" class="graph" transform="scale(1 1) rotate(0) translate(21.6 465.35)">
<title>G</title>
<polygon fill="#111111" stroke="none" points="-21.6,21.6 -21.6,-465.35 1715.85,-465.35 1715.85,21.6 -21.6,21.6"/>
<!-- .claude/worktrees/epic&#45;meitner&#45;178f1e/scripts/setup&#45;android&#45;env.js -->
<g id="node1" class="node">
<title>.claude/worktrees/epic&#45;meitner&#45;178f1e/scripts/setup&#45;android&#45;env.js</title>
<path fill="none" stroke="#cfffac" d="M476.08,-23.75C476.08,-23.75 77.67,-23.75 77.67,-23.75 73.71,-23.75 69.75,-19.79 69.75,-15.83 69.75,-15.83 69.75,-7.92 69.75,-7.92 69.75,-3.96 73.71,0 77.67,0 77.67,0 476.08,0 476.08,0 480.04,0 484,-3.96 484,-7.92 484,-7.92 484,-15.83 484,-15.83 484,-19.79 480.04,-23.75 476.08,-23.75"/>
<text xml:space="preserve" text-anchor="middle" x="276.88" y="-6.45" font-family="Arial" font-size="14.00" fill="#cfffac">.claude/worktrees/epic&#45;meitner&#45;178f1e/scripts/setup&#45;android&#45;env.js</text>
</g>
<!-- .venv/Lib/site&#45;packages/pip/_vendor/urllib3/contrib/emscripten/emscripten_fetch_worker.js -->
<g id="node2" class="node">
<title>.venv/Lib/site&#45;packages/pip/_vendor/urllib3/contrib/emscripten/emscripten_fetch_worker.js</title>
<path fill="none" stroke="#cfffac" d="M545.83,-65.75C545.83,-65.75 7.92,-65.75 7.92,-65.75 3.96,-65.75 0,-61.79 0,-57.83 0,-57.83 0,-49.92 0,-49.92 0,-45.96 3.96,-42 7.92,-42 7.92,-42 545.83,-42 545.83,-42 549.79,-42 553.75,-45.96 553.75,-49.92 553.75,-49.92 553.75,-57.83 553.75,-57.83 553.75,-61.79 549.79,-65.75 545.83,-65.75"/>
<text xml:space="preserve" text-anchor="middle" x="276.88" y="-48.45" font-family="Arial" font-size="14.00" fill="#cfffac">.venv/Lib/site&#45;packages/pip/_vendor/urllib3/contrib/emscripten/emscripten_fetch_worker.js</text>
</g>
<!-- android/app/build/intermediates/assets/debug/native&#45;bridge.js -->
<g id="node3" class="node">
<title>android/app/build/intermediates/assets/debug/native&#45;bridge.js</title>
<path fill="none" stroke="#cfffac" d="M461.08,-107.75C461.08,-107.75 92.67,-107.75 92.67,-107.75 88.71,-107.75 84.75,-103.79 84.75,-99.83 84.75,-99.83 84.75,-91.92 84.75,-91.92 84.75,-87.96 88.71,-84 92.67,-84 92.67,-84 461.08,-84 461.08,-84 465.04,-84 469,-87.96 469,-91.92 469,-91.92 469,-99.83 469,-99.83 469,-103.79 465.04,-107.75 461.08,-107.75"/>
<text xml:space="preserve" text-anchor="middle" x="276.88" y="-90.45" font-family="Arial" font-size="14.00" fill="#cfffac">android/app/build/intermediates/assets/debug/native&#45;bridge.js</text>
</g>
<!-- android/app/build/intermediates/assets/debug/public/assets/__vite&#45;browser&#45;external&#45;BIHI7g3E.js -->
<g id="node4" class="node">
<title>android/app/build/intermediates/assets/debug/public/assets/__vite&#45;browser&#45;external&#45;BIHI7g3E.js</title>
<path fill="none" stroke="#cfffac" d="M1173.08,-191.75C1173.08,-191.75 597.67,-191.75 597.67,-191.75 593.71,-191.75 589.75,-187.79 589.75,-183.83 589.75,-183.83 589.75,-175.92 589.75,-175.92 589.75,-171.96 593.71,-168 597.67,-168 597.67,-168 1173.08,-168 1173.08,-168 1177.04,-168 1181,-171.96 1181,-175.92 1181,-175.92 1181,-183.83 1181,-183.83 1181,-187.79 1177.04,-191.75 1173.08,-191.75"/>
<text xml:space="preserve" text-anchor="middle" x="885.38" y="-174.45" font-family="Arial" font-size="14.00" fill="#cfffac">android/app/build/intermediates/assets/debug/public/assets/__vite&#45;browser&#45;external&#45;BIHI7g3E.js</text>
</g>
<!-- android/app/build/intermediates/assets/debug/public/assets/index&#45;Db4qpwaB.js -->
<g id="node5" class="node">
<title>android/app/build/intermediates/assets/debug/public/assets/index&#45;Db4qpwaB.js</title>
<path fill="none" stroke="#ff6c60" d="M514.33,-149.75C514.33,-149.75 39.42,-149.75 39.42,-149.75 35.46,-149.75 31.5,-145.79 31.5,-141.83 31.5,-141.83 31.5,-133.92 31.5,-133.92 31.5,-129.96 35.46,-126 39.42,-126 39.42,-126 514.33,-126 514.33,-126 518.29,-126 522.25,-129.96 522.25,-133.92 522.25,-133.92 522.25,-141.83 522.25,-141.83 522.25,-145.79 518.29,-149.75 514.33,-149.75"/>
<text xml:space="preserve" text-anchor="middle" x="276.88" y="-132.45" font-family="Arial" font-size="14.00" fill="#ff6c60">android/app/build/intermediates/assets/debug/public/assets/index&#45;Db4qpwaB.js</text>
</g>
<!-- android/app/build/intermediates/assets/debug/public/assets/index&#45;Db4qpwaB.js&#45;&gt;android/app/build/intermediates/assets/debug/public/assets/__vite&#45;browser&#45;external&#45;BIHI7g3E.js -->
<g id="edge1" class="edge">
<title>android/app/build/intermediates/assets/debug/public/assets/index&#45;Db4qpwaB.js&#45;&gt;android/app/build/intermediates/assets/debug/public/assets/__vite&#45;browser&#45;external&#45;BIHI7g3E.js</title>
<path fill="none" stroke="#757575" d="M456.56,-150.25C531.5,-155.44 618.71,-161.48 694.78,-166.75"/>
<polygon fill="#757575" stroke="#757575" points="694.19,-170.21 704.41,-167.41 694.67,-163.23 694.19,-170.21"/>
</g>
<!-- android/app/build/intermediates/assets/debug/public/assets/index&#45;VVqAy6lh.js -->
<g id="node6" class="node">
<title>android/app/build/intermediates/assets/debug/public/assets/index&#45;VVqAy6lh.js</title>
<path fill="none" stroke="#ff6c60" d="M1119.46,-149.75C1119.46,-149.75 651.29,-149.75 651.29,-149.75 647.33,-149.75 643.38,-145.79 643.38,-141.83 643.38,-141.83 643.38,-133.92 643.38,-133.92 643.38,-129.96 647.33,-126 651.29,-126 651.29,-126 1119.46,-126 1119.46,-126 1123.42,-126 1127.38,-129.96 1127.38,-133.92 1127.38,-133.92 1127.38,-141.83 1127.38,-141.83 1127.38,-145.79 1123.42,-149.75 1119.46,-149.75"/>
<text xml:space="preserve" text-anchor="middle" x="885.38" y="-132.45" font-family="Arial" font-size="14.00" fill="#ff6c60">android/app/build/intermediates/assets/debug/public/assets/index&#45;VVqAy6lh.js</text>
</g>
<!-- android/app/build/intermediates/assets/debug/public/assets/index&#45;Db4qpwaB.js&#45;&gt;android/app/build/intermediates/assets/debug/public/assets/index&#45;VVqAy6lh.js -->
<g id="edge2" class="edge">
<title>android/app/build/intermediates/assets/debug/public/assets/index&#45;Db4qpwaB.js&#45;&gt;android/app/build/intermediates/assets/debug/public/assets/index&#45;VVqAy6lh.js</title>
<path fill="none" stroke="#757575" d="M522.38,-131.24C558.45,-131.1 595.68,-131.09 631.91,-131.21"/>
<polygon fill="#757575" stroke="#757575" points="631.59,-134.71 641.6,-131.25 631.62,-127.71 631.59,-134.71"/>
</g>
<!-- android/app/build/intermediates/assets/debug/public/assets/index&#45;VVqAy6lh.js&#45;&gt;android/app/build/intermediates/assets/debug/public/assets/index&#45;Db4qpwaB.js -->
<g id="edge3" class="edge">
<title>android/app/build/intermediates/assets/debug/public/assets/index&#45;VVqAy6lh.js&#45;&gt;android/app/build/intermediates/assets/debug/public/assets/index&#45;Db4qpwaB.js</title>
<path fill="none" stroke="#757575" d="M643.12,-144.5C607.11,-144.65 569.89,-144.66 533.61,-144.55"/>
<polygon fill="#757575" stroke="#757575" points="533.9,-141.05 523.89,-144.52 533.88,-148.05 533.9,-141.05"/>
</g>
<!-- android/app/build/intermediates/assets/debug/public/assets/web&#45;VrXsJA7g.js -->
<g id="node7" class="node">
<title>android/app/build/intermediates/assets/debug/public/assets/web&#45;VrXsJA7g.js</title>
<path fill="none" stroke="#ff6c60" d="M1686.33,-149.75C1686.33,-149.75 1224.92,-149.75 1224.92,-149.75 1220.96,-149.75 1217,-145.79 1217,-141.83 1217,-141.83 1217,-133.92 1217,-133.92 1217,-129.96 1220.96,-126 1224.92,-126 1224.92,-126 1686.33,-126 1686.33,-126 1690.29,-126 1694.25,-129.96 1694.25,-133.92 1694.25,-133.92 1694.25,-141.83 1694.25,-141.83 1694.25,-145.79 1690.29,-149.75 1686.33,-149.75"/>
<text xml:space="preserve" text-anchor="middle" x="1455.62" y="-132.45" font-family="Arial" font-size="14.00" fill="#ff6c60">android/app/build/intermediates/assets/debug/public/assets/web&#45;VrXsJA7g.js</text>
</g>
<!-- android/app/build/intermediates/assets/debug/public/assets/index&#45;VVqAy6lh.js&#45;&gt;android/app/build/intermediates/assets/debug/public/assets/web&#45;VrXsJA7g.js -->
<g id="edge4" class="edge">
<title>android/app/build/intermediates/assets/debug/public/assets/index&#45;VVqAy6lh.js&#45;&gt;android/app/build/intermediates/assets/debug/public/assets/web&#45;VrXsJA7g.js</title>
<path fill="none" stroke="#757575" d="M1127.78,-131.19C1153.45,-131.11 1179.6,-131.1 1205.36,-131.17"/>
<polygon fill="#757575" stroke="#757575" points="1205.25,-134.67 1215.26,-131.2 1205.27,-127.67 1205.25,-134.67"/>
</g>
<!-- android/app/build/intermediates/assets/debug/public/assets/web&#45;VrXsJA7g.js&#45;&gt;android/app/build/intermediates/assets/debug/public/assets/index&#45;Db4qpwaB.js -->
<g id="edge5" class="edge">
<title>android/app/build/intermediates/assets/debug/public/assets/web&#45;VrXsJA7g.js&#45;&gt;android/app/build/intermediates/assets/debug/public/assets/index&#45;Db4qpwaB.js</title>
<path fill="none" stroke="#757575" d="M1320.44,-125.52C1276.09,-121.98 1226.47,-118.62 1181,-116.88 918.41,-106.81 852.38,-108.04 589.75,-116.88 541.8,-118.49 489.77,-121.49 442.2,-124.73"/>
<polygon fill="#757575" stroke="#757575" points="442.09,-121.23 432.36,-125.41 442.58,-128.21 442.09,-121.23"/>
</g>
<!-- android/app/build/intermediates/assets/debug/public/assets/web&#45;VrXsJA7g.js&#45;&gt;android/app/build/intermediates/assets/debug/public/assets/index&#45;VVqAy6lh.js -->
<g id="edge6" class="edge">
<title>android/app/build/intermediates/assets/debug/public/assets/web&#45;VrXsJA7g.js&#45;&gt;android/app/build/intermediates/assets/debug/public/assets/index&#45;VVqAy6lh.js</title>
<path fill="none" stroke="#757575" d="M1216.77,-144.54C1191.14,-144.63 1165,-144.65 1139.2,-144.59"/>
<polygon fill="#757575" stroke="#757575" points="1139.3,-141.09 1129.29,-144.56 1139.28,-148.09 1139.3,-141.09"/>
</g>
<!-- android/app/build/intermediates/assets/debug/public/cordova.js -->
<g id="node8" class="node">
<title>android/app/build/intermediates/assets/debug/public/cordova.js</title>
<path fill="none" stroke="#cfffac" d="M465.58,-191.75C465.58,-191.75 88.17,-191.75 88.17,-191.75 84.21,-191.75 80.25,-187.79 80.25,-183.83 80.25,-183.83 80.25,-175.92 80.25,-175.92 80.25,-171.96 84.21,-168 88.17,-168 88.17,-168 465.58,-168 465.58,-168 469.54,-168 473.5,-171.96 473.5,-175.92 473.5,-175.92 473.5,-183.83 473.5,-183.83 473.5,-187.79 469.54,-191.75 465.58,-191.75"/>
<text xml:space="preserve" text-anchor="middle" x="276.88" y="-174.45" font-family="Arial" font-size="14.00" fill="#cfffac">android/app/build/intermediates/assets/debug/public/cordova.js</text>
</g>
<!-- android/app/build/intermediates/assets/debug/public/cordova_plugins.js -->
<g id="node9" class="node">
<title>android/app/build/intermediates/assets/debug/public/cordova_plugins.js</title>
<path fill="none" stroke="#cfffac" d="M490.71,-233.75C490.71,-233.75 63.04,-233.75 63.04,-233.75 59.08,-233.75 55.12,-229.79 55.12,-225.83 55.12,-225.83 55.12,-217.92 55.12,-217.92 55.12,-213.96 59.08,-210 63.04,-210 63.04,-210 490.71,-210 490.71,-210 494.67,-210 498.62,-213.96 498.62,-217.92 498.62,-217.92 498.62,-225.83 498.62,-225.83 498.62,-229.79 494.67,-233.75 490.71,-233.75"/>
<text xml:space="preserve" text-anchor="middle" x="276.88" y="-216.45" font-family="Arial" font-size="14.00" fill="#cfffac">android/app/build/intermediates/assets/debug/public/cordova_plugins.js</text>
</g>
<!-- android/app/src/main/assets/public/assets/__vite&#45;browser&#45;external&#45;BIHI7g3E.js -->
<g id="node10" class="node">
<title>android/app/src/main/assets/public/assets/__vite&#45;browser&#45;external&#45;BIHI7g3E.js</title>
<path fill="none" stroke="#cfffac" d="M1121.33,-317.75C1121.33,-317.75 649.42,-317.75 649.42,-317.75 645.46,-317.75 641.5,-313.79 641.5,-309.83 641.5,-309.83 641.5,-301.92 641.5,-301.92 641.5,-297.96 645.46,-294 649.42,-294 649.42,-294 1121.33,-294 1121.33,-294 1125.29,-294 1129.25,-297.96 1129.25,-301.92 1129.25,-301.92 1129.25,-309.83 1129.25,-309.83 1129.25,-313.79 1125.29,-317.75 1121.33,-317.75"/>
<text xml:space="preserve" text-anchor="middle" x="885.38" y="-300.45" font-family="Arial" font-size="14.00" fill="#cfffac">android/app/src/main/assets/public/assets/__vite&#45;browser&#45;external&#45;BIHI7g3E.js</text>
</g>
<!-- android/app/src/main/assets/public/assets/index&#45;Db4qpwaB.js -->
<g id="node11" class="node">
<title>android/app/src/main/assets/public/assets/index&#45;Db4qpwaB.js</title>
<path fill="none" stroke="#ff6c60" d="M462.58,-275.75C462.58,-275.75 91.17,-275.75 91.17,-275.75 87.21,-275.75 83.25,-271.79 83.25,-267.83 83.25,-267.83 83.25,-259.92 83.25,-259.92 83.25,-255.96 87.21,-252 91.17,-252 91.17,-252 462.58,-252 462.58,-252 466.54,-252 470.5,-255.96 470.5,-259.92 470.5,-259.92 470.5,-267.83 470.5,-267.83 470.5,-271.79 466.54,-275.75 462.58,-275.75"/>
<text xml:space="preserve" text-anchor="middle" x="276.88" y="-258.45" font-family="Arial" font-size="14.00" fill="#ff6c60">android/app/src/main/assets/public/assets/index&#45;Db4qpwaB.js</text>
</g>
<!-- android/app/src/main/assets/public/assets/index&#45;Db4qpwaB.js&#45;&gt;android/app/src/main/assets/public/assets/__vite&#45;browser&#45;external&#45;BIHI7g3E.js -->
<g id="edge7" class="edge">
<title>android/app/src/main/assets/public/assets/index&#45;Db4qpwaB.js&#45;&gt;android/app/src/main/assets/public/assets/__vite&#45;browser&#45;external&#45;BIHI7g3E.js</title>
<path fill="none" stroke="#757575" d="M456.56,-276.25C531.5,-281.44 618.71,-287.48 694.78,-292.75"/>
<polygon fill="#757575" stroke="#757575" points="694.19,-296.21 704.41,-293.41 694.67,-289.23 694.19,-296.21"/>
</g>
<!-- android/app/src/main/assets/public/assets/index&#45;VVqAy6lh.js -->
<g id="node12" class="node">
<title>android/app/src/main/assets/public/assets/index&#45;VVqAy6lh.js</title>
<path fill="none" stroke="#ff6c60" d="M1067.71,-275.75C1067.71,-275.75 703.04,-275.75 703.04,-275.75 699.08,-275.75 695.12,-271.79 695.12,-267.83 695.12,-267.83 695.12,-259.92 695.12,-259.92 695.12,-255.96 699.08,-252 703.04,-252 703.04,-252 1067.71,-252 1067.71,-252 1071.67,-252 1075.62,-255.96 1075.62,-259.92 1075.62,-259.92 1075.62,-267.83 1075.62,-267.83 1075.62,-271.79 1071.67,-275.75 1067.71,-275.75"/>
<text xml:space="preserve" text-anchor="middle" x="885.38" y="-258.45" font-family="Arial" font-size="14.00" fill="#ff6c60">android/app/src/main/assets/public/assets/index&#45;VVqAy6lh.js</text>
</g>
<!-- android/app/src/main/assets/public/assets/index&#45;Db4qpwaB.js&#45;&gt;android/app/src/main/assets/public/assets/index&#45;VVqAy6lh.js -->
<g id="edge8" class="edge">
<title>android/app/src/main/assets/public/assets/index&#45;Db4qpwaB.js&#45;&gt;android/app/src/main/assets/public/assets/index&#45;VVqAy6lh.js</title>
<path fill="none" stroke="#757575" d="M470.61,-257.54C538.46,-257.01 614.86,-256.99 683.37,-257.48"/>
<polygon fill="#757575" stroke="#757575" points="683.2,-260.98 693.22,-257.55 683.25,-253.98 683.2,-260.98"/>
</g>
<!-- android/app/src/main/assets/public/assets/index&#45;VVqAy6lh.js&#45;&gt;android/app/src/main/assets/public/assets/index&#45;Db4qpwaB.js -->
<g id="edge9" class="edge">
<title>android/app/src/main/assets/public/assets/index&#45;VVqAy6lh.js&#45;&gt;android/app/src/main/assets/public/assets/index&#45;Db4qpwaB.js</title>
<path fill="none" stroke="#757575" d="M694.74,-270.18C627.15,-270.73 550.77,-270.77 482.02,-270.29"/>
<polygon fill="#757575" stroke="#757575" points="482.15,-266.79 472.12,-270.22 482.1,-273.79 482.15,-266.79"/>
</g>
<!-- android/app/src/main/assets/public/assets/web&#45;VrXsJA7g.js -->
<g id="node13" class="node">
<title>android/app/src/main/assets/public/assets/web&#45;VrXsJA7g.js</title>
<path fill="none" stroke="#ff6c60" d="M1634.58,-275.75C1634.58,-275.75 1276.67,-275.75 1276.67,-275.75 1272.71,-275.75 1268.75,-271.79 1268.75,-267.83 1268.75,-267.83 1268.75,-259.92 1268.75,-259.92 1268.75,-255.96 1272.71,-252 1276.67,-252 1276.67,-252 1634.58,-252 1634.58,-252 1638.54,-252 1642.5,-255.96 1642.5,-259.92 1642.5,-259.92 1642.5,-267.83 1642.5,-267.83 1642.5,-271.79 1638.54,-275.75 1634.58,-275.75"/>
<text xml:space="preserve" text-anchor="middle" x="1455.62" y="-258.45" font-family="Arial" font-size="14.00" fill="#ff6c60">android/app/src/main/assets/public/assets/web&#45;VrXsJA7g.js</text>
</g>
<!-- android/app/src/main/assets/public/assets/index&#45;VVqAy6lh.js&#45;&gt;android/app/src/main/assets/public/assets/web&#45;VrXsJA7g.js -->
<g id="edge10" class="edge">
<title>android/app/src/main/assets/public/assets/index&#45;VVqAy6lh.js&#45;&gt;android/app/src/main/assets/public/assets/web&#45;VrXsJA7g.js</title>
<path fill="none" stroke="#757575" d="M1075.99,-257.47C1134.21,-257.03 1198.4,-257.01 1257.13,-257.41"/>
<polygon fill="#757575" stroke="#757575" points="1256.87,-260.91 1266.9,-257.48 1256.92,-253.91 1256.87,-260.91"/>
</g>
<!-- android/app/src/main/assets/public/assets/web&#45;VrXsJA7g.js&#45;&gt;android/app/src/main/assets/public/assets/index&#45;Db4qpwaB.js -->
<g id="edge11" class="edge">
<title>android/app/src/main/assets/public/assets/web&#45;VrXsJA7g.js&#45;&gt;android/app/src/main/assets/public/assets/index&#45;Db4qpwaB.js</title>
<path fill="none" stroke="#757575" d="M1320.44,-251.52C1276.09,-247.98 1226.47,-244.62 1181,-242.88 918.41,-232.81 852.38,-234.04 589.75,-242.88 541.8,-244.49 489.77,-247.49 442.2,-250.73"/>
<polygon fill="#757575" stroke="#757575" points="442.09,-247.23 432.36,-251.41 442.58,-254.21 442.09,-247.23"/>
</g>
<!-- android/app/src/main/assets/public/assets/web&#45;VrXsJA7g.js&#45;&gt;android/app/src/main/assets/public/assets/index&#45;VVqAy6lh.js -->
<g id="edge12" class="edge">
<title>android/app/src/main/assets/public/assets/web&#45;VrXsJA7g.js&#45;&gt;android/app/src/main/assets/public/assets/index&#45;VVqAy6lh.js</title>
<path fill="none" stroke="#757575" d="M1268.41,-270.26C1210.43,-270.71 1146.26,-270.75 1087.32,-270.36"/>
<polygon fill="#757575" stroke="#757575" points="1087.53,-266.86 1077.5,-270.29 1087.48,-273.86 1087.53,-266.86"/>
</g>
<!-- android/app/src/main/assets/public/cordova.js -->
<g id="node14" class="node">
<title>android/app/src/main/assets/public/cordova.js</title>
<path fill="none" stroke="#cfffac" d="M413.83,-317.75C413.83,-317.75 139.92,-317.75 139.92,-317.75 135.96,-317.75 132,-313.79 132,-309.83 132,-309.83 132,-301.92 132,-301.92 132,-297.96 135.96,-294 139.92,-294 139.92,-294 413.83,-294 413.83,-294 417.79,-294 421.75,-297.96 421.75,-301.92 421.75,-301.92 421.75,-309.83 421.75,-309.83 421.75,-313.79 417.79,-317.75 413.83,-317.75"/>
<text xml:space="preserve" text-anchor="middle" x="276.88" y="-300.45" font-family="Arial" font-size="14.00" fill="#cfffac">android/app/src/main/assets/public/cordova.js</text>
</g>
<!-- android/app/src/main/assets/public/cordova_plugins.js -->
<g id="node15" class="node">
<title>android/app/src/main/assets/public/cordova_plugins.js</title>
<path fill="none" stroke="#cfffac" d="M438.96,-359.75C438.96,-359.75 114.79,-359.75 114.79,-359.75 110.83,-359.75 106.88,-355.79 106.88,-351.83 106.88,-351.83 106.88,-343.92 106.88,-343.92 106.88,-339.96 110.83,-336 114.79,-336 114.79,-336 438.96,-336 438.96,-336 442.92,-336 446.88,-339.96 446.88,-343.92 446.88,-343.92 446.88,-351.83 446.88,-351.83 446.88,-355.79 442.92,-359.75 438.96,-359.75"/>
<text xml:space="preserve" text-anchor="middle" x="276.88" y="-342.45" font-family="Arial" font-size="14.00" fill="#cfffac">android/app/src/main/assets/public/cordova_plugins.js</text>
</g>
<!-- dist/assets/__vite&#45;browser&#45;external&#45;BIHI7g3E.js -->
<g id="node16" class="node">
<title>dist/assets/__vite&#45;browser&#45;external&#45;BIHI7g3E.js</title>
<path fill="none" stroke="#cfffac" d="M1027.58,-443.75C1027.58,-443.75 743.17,-443.75 743.17,-443.75 739.21,-443.75 735.25,-439.79 735.25,-435.83 735.25,-435.83 735.25,-427.92 735.25,-427.92 735.25,-423.96 739.21,-420 743.17,-420 743.17,-420 1027.58,-420 1027.58,-420 1031.54,-420 1035.5,-423.96 1035.5,-427.92 1035.5,-427.92 1035.5,-435.83 1035.5,-435.83 1035.5,-439.79 1031.54,-443.75 1027.58,-443.75"/>
<text xml:space="preserve" text-anchor="middle" x="885.38" y="-426.45" font-family="Arial" font-size="14.00" fill="#cfffac">dist/assets/__vite&#45;browser&#45;external&#45;BIHI7g3E.js</text>
</g>
<!-- dist/assets/index&#45;Db4qpwaB.js -->
<g id="node17" class="node">
<title>dist/assets/index&#45;Db4qpwaB.js</title>
<path fill="none" stroke="#ff6c60" d="M368.83,-401.75C368.83,-401.75 184.92,-401.75 184.92,-401.75 180.96,-401.75 177,-397.79 177,-393.83 177,-393.83 177,-385.92 177,-385.92 177,-381.96 180.96,-378 184.92,-378 184.92,-378 368.83,-378 368.83,-378 372.79,-378 376.75,-381.96 376.75,-385.92 376.75,-385.92 376.75,-393.83 376.75,-393.83 376.75,-397.79 372.79,-401.75 368.83,-401.75"/>
<text xml:space="preserve" text-anchor="middle" x="276.88" y="-384.45" font-family="Arial" font-size="14.00" fill="#ff6c60">dist/assets/index&#45;Db4qpwaB.js</text>
</g>
<!-- dist/assets/index&#45;Db4qpwaB.js&#45;&gt;dist/assets/__vite&#45;browser&#45;external&#45;BIHI7g3E.js -->
<g id="edge13" class="edge">
<title>dist/assets/index&#45;Db4qpwaB.js&#45;&gt;dist/assets/__vite&#45;browser&#45;external&#45;BIHI7g3E.js</title>
<path fill="none" stroke="#757575" d="M377.01,-396.74C470.93,-403.24 613.61,-413.12 723.77,-420.75"/>
<polygon fill="#757575" stroke="#757575" points="723.27,-424.23 733.49,-421.43 723.76,-417.24 723.27,-424.23"/>
</g>
<!-- dist/assets/index&#45;VVqAy6lh.js -->
<g id="node18" class="node">
<title>dist/assets/index&#45;VVqAy6lh.js</title>
<path fill="none" stroke="#ff6c60" d="M973.96,-401.75C973.96,-401.75 796.79,-401.75 796.79,-401.75 792.83,-401.75 788.88,-397.79 788.88,-393.83 788.88,-393.83 788.88,-385.92 788.88,-385.92 788.88,-381.96 792.83,-378 796.79,-378 796.79,-378 973.96,-378 973.96,-378 977.92,-378 981.88,-381.96 981.88,-385.92 981.88,-385.92 981.88,-393.83 981.88,-393.83 981.88,-397.79 977.92,-401.75 973.96,-401.75"/>
<text xml:space="preserve" text-anchor="middle" x="885.38" y="-384.45" font-family="Arial" font-size="14.00" fill="#ff6c60">dist/assets/index&#45;VVqAy6lh.js</text>
</g>
<!-- dist/assets/index&#45;Db4qpwaB.js&#45;&gt;dist/assets/index&#45;VVqAy6lh.js -->
<g id="edge14" class="edge">
<title>dist/assets/index&#45;Db4qpwaB.js&#45;&gt;dist/assets/index&#45;VVqAy6lh.js</title>
<path fill="none" stroke="#757575" d="M377.01,-384.73C487.08,-382.64 664.13,-382.59 777.31,-384.58"/>
<polygon fill="#757575" stroke="#757575" points="777.16,-388.08 787.23,-384.77 777.29,-381.08 777.16,-388.08"/>
</g>
<!-- dist/assets/index&#45;VVqAy6lh.js&#45;&gt;dist/assets/index&#45;Db4qpwaB.js -->
<g id="edge15" class="edge">
<title>dist/assets/index&#45;VVqAy6lh.js&#45;&gt;dist/assets/index&#45;Db4qpwaB.js</title>
<path fill="none" stroke="#757575" d="M788.74,-394.95C680,-397.09 502.75,-397.18 388.23,-395.22"/>
<polygon fill="#757575" stroke="#757575" points="388.58,-391.73 378.52,-395.05 388.46,-398.73 388.58,-391.73"/>
</g>
<!-- dist/assets/web&#45;VrXsJA7g.js -->
<g id="node19" class="node">
<title>dist/assets/web&#45;VrXsJA7g.js</title>
<path fill="none" stroke="#ff6c60" d="M1540.83,-401.75C1540.83,-401.75 1370.42,-401.75 1370.42,-401.75 1366.46,-401.75 1362.5,-397.79 1362.5,-393.83 1362.5,-393.83 1362.5,-385.92 1362.5,-385.92 1362.5,-381.96 1366.46,-378 1370.42,-378 1370.42,-378 1540.83,-378 1540.83,-378 1544.79,-378 1548.75,-381.96 1548.75,-385.92 1548.75,-385.92 1548.75,-393.83 1548.75,-393.83 1548.75,-397.79 1544.79,-401.75 1540.83,-401.75"/>
<text xml:space="preserve" text-anchor="middle" x="1455.62" y="-384.45" font-family="Arial" font-size="14.00" fill="#ff6c60">dist/assets/web&#45;VrXsJA7g.js</text>
</g>
<!-- dist/assets/index&#45;VVqAy6lh.js&#45;&gt;dist/assets/web&#45;VrXsJA7g.js -->
<g id="edge16" class="edge">
<title>dist/assets/index&#45;VVqAy6lh.js&#45;&gt;dist/assets/web&#45;VrXsJA7g.js</title>
<path fill="none" stroke="#757575" d="M982.13,-384.67C1084.36,-382.66 1245.82,-382.61 1350.99,-384.52"/>
<polygon fill="#757575" stroke="#757575" points="1350.67,-388.02 1360.74,-384.71 1350.81,-381.02 1350.67,-388.02"/>
</g>
<!-- dist/assets/web&#45;VrXsJA7g.js&#45;&gt;dist/assets/index&#45;Db4qpwaB.js -->
<g id="edge17" class="edge">
<title>dist/assets/web&#45;VrXsJA7g.js&#45;&gt;dist/assets/index&#45;Db4qpwaB.js</title>
<path fill="none" stroke="#757575" d="M1362.27,-381.02C1309.28,-376.38 1241.46,-371.19 1181,-368.88 918.41,-358.81 852.38,-360.04 589.75,-368.88 522.87,-371.12 448.07,-376.08 388.49,-380.61"/>
<polygon fill="#757575" stroke="#757575" points="388.37,-377.11 378.67,-381.36 388.91,-384.09 388.37,-377.11"/>
</g>
<!-- dist/assets/web&#45;VrXsJA7g.js&#45;&gt;dist/assets/index&#45;VVqAy6lh.js -->
<g id="edge18" class="edge">
<title>dist/assets/web&#45;VrXsJA7g.js&#45;&gt;dist/assets/index&#45;VVqAy6lh.js</title>
<path fill="none" stroke="#757575" d="M1362.25,-395.01C1261.35,-397.07 1099.93,-397.16 993.53,-395.29"/>
<polygon fill="#757575" stroke="#757575" points="993.7,-391.79 983.64,-395.11 993.57,-398.79 993.7,-391.79"/>
</g>
<!-- scripts/setup&#45;android&#45;env.js -->
<g id="node20" class="node">
<title>scripts/setup&#45;android&#45;env.js</title>
<path fill="none" stroke="#cfffac" d="M359.08,-443.75C359.08,-443.75 194.67,-443.75 194.67,-443.75 190.71,-443.75 186.75,-439.79 186.75,-435.83 186.75,-435.83 186.75,-427.92 186.75,-427.92 186.75,-423.96 190.71,-420 194.67,-420 194.67,-420 359.08,-420 359.08,-420 363.04,-420 367,-423.96 367,-427.92 367,-427.92 367,-435.83 367,-435.83 367,-439.79 363.04,-443.75 359.08,-443.75"/>
<text xml:space="preserve" text-anchor="middle" x="276.88" y="-426.45" font-family="Arial" font-size="14.00" fill="#cfffac">scripts/setup&#45;android&#45;env.js</text>
</g>
</g>
</svg>
